# xmcd CD database file
#
# Track frame offsets:
#	150
#	15075
#	47325
#	63150
#	78950
#	102450
#	131037
#	149850
#
# Disc length: 2351 seconds
#
# Revision: 2
# Processed by: cddbd v1.4b41PL1 Copyright (c) Steve Scherf et al.
# Submitted via: Feurio! 1.50.2ß - http://www.feurio.com
#
DISCID=63092d08
DTITLE=Rio Reiser - Balladen Extra CD
DYEAR=1900
DGENRE=
TTITLE0=König von Deutschland (Akustik-Version ´94)
TTITLE1=Geld (Extended Valuta Maxi Mix)
TTITLE2=Zwischen Null und Zero
TTITLE3=Frankfurt
TTITLE4=Ich komm´ nicht mehr nach Haus´
TTITLE5=Für immer und Dich (Maxi Re-Mix)
TTITLE6=Übers Meer (Akustik-Version)
TTITLE7=Junimond (Fizz-Mix)
EXTD=
EXTT0=
EXTT1=
EXTT2=
EXTT3=
EXTT4=
EXTT5=
EXTT6=
EXTT7=
PLAYORDER=
